<svg xmlns="http://www.w3.org/2000/svg" xmlns:xlink="http://www.w3.org/1999/xlink" width="500" zoomAndPan="magnify" viewBox="0 0 375 374.999991" height="500" preserveAspectRatio="xMidYMid meet" version="1.0"><defs><g/><clipPath id="1e06d35d81"><path d="M 255 53 L 309.425781 53 L 309.425781 185 L 255 185 Z M 255 53 " clip-rule="nonzero"/></clipPath><clipPath id="f078c67e6f"><path d="M 87 25.8125 L 278 25.8125 L 278 227 L 87 227 Z M 87 25.8125 " clip-rule="nonzero"/></clipPath></defs><g clip-path="url(#1e06d35d81)"><path fill="#2d4854" d="M 255.75 184.644531 C 289.195312 155.160156 281.351562 115.035156 271.382812 113.476562 C 261.414062 111.921875 261.257812 101.953125 261.257812 101.953125 C 261.257812 101.953125 265.152344 110.832031 268.109375 105.691406 C 271.070312 100.554688 262.191406 96.351562 262.191406 96.351562 C 270.449219 96.503906 272.371094 108.652344 277.769531 108.027344 C 283.171875 107.40625 280.886719 98.6875 271.953125 96.191406 C 263.023438 93.699219 263.4375 83.113281 263.4375 83.113281 C 269.878906 91.625 276.109375 91.625 276.109375 91.625 C 276.109375 91.625 278.394531 83.734375 274.863281 70.445312 C 271.332031 57.15625 277.769531 53.835938 277.769531 53.835938 C 277.769531 53.835938 270.085938 63.386719 282.546875 72.316406 C 295.011719 81.242188 291.6875 91.210938 291.6875 91.210938 C 299.582031 84.152344 309.34375 87.886719 309.34375 87.886719 C 309.34375 87.886719 289.613281 85.8125 287.535156 125.996094 C 285.457031 166.179688 255.75 184.644531 255.75 184.644531 " fill-opacity="1" fill-rule="nonzero"/></g><g clip-path="url(#f078c67e6f)"><path fill="#2d4854" d="M 123.582031 106.515625 C 122.726562 102.199219 122.28125 97.8125 121.984375 93.425781 C 121.734375 89.03125 121.761719 84.621094 122.082031 80.238281 C 122.390625 75.851562 123.019531 71.472656 124.160156 67.226562 C 123.972656 71.609375 123.996094 75.960938 124.019531 80.296875 C 124.097656 84.632812 124.175781 88.964844 124.472656 93.28125 C 124.71875 97.601562 125.050781 101.925781 125.507812 106.238281 L 126.964844 119.238281 C 125.542969 115.089844 124.335938 110.84375 123.582031 106.515625 Z M 131.328125 56.949219 C 131.488281 60.214844 131.660156 63.464844 132 66.703125 C 132.257812 69.941406 132.621094 73.167969 133.039062 76.386719 C 133.914062 82.816406 134.984375 89.203125 136.40625 95.515625 C 137.730469 101.851562 139.53125 108.070312 141.542969 114.222656 L 143.105469 118.828125 L 144.925781 123.335938 C 145.972656 126.429688 147.566406 129.265625 148.773438 132.320312 C 145.253906 126.824219 142.085938 121.023438 139.742188 114.882812 C 137.273438 108.792969 135.371094 102.472656 133.972656 96.050781 C 132.59375 89.632812 131.566406 83.125 131.140625 76.578125 C 130.691406 70.039062 130.605469 63.460938 131.328125 56.949219 Z M 140.582031 74.390625 C 138.074219 64.859375 136.792969 54.863281 138.179688 45.117188 C 137.964844 50.011719 138.363281 54.890625 139.117188 59.691406 C 139.523438 62.09375 139.878906 64.492188 140.496094 66.847656 L 141.34375 70.386719 L 142.417969 73.863281 C 145.300781 83.125 149.40625 91.96875 154.523438 100.191406 C 157.207031 104.226562 159.761719 108.355469 162.914062 112.0625 C 164.464844 113.929688 165.804688 115.976562 167.539062 117.683594 C 169.210938 119.449219 170.847656 121.242188 172.476562 123.054688 C 174.046875 124.921875 175.882812 126.523438 177.65625 128.195312 L 182.992188 133.203125 C 186.675781 136.402344 190.546875 139.386719 194.265625 142.597656 C 190.21875 139.847656 186.179688 137.039062 182.210938 134.140625 L 176.59375 129.359375 C 174.726562 127.75 172.792969 126.210938 171.113281 124.40625 C 167.613281 120.933594 164.144531 117.410156 161.140625 113.480469 C 157.882812 109.753906 155.199219 105.59375 152.410156 101.507812 C 147.363281 93.003906 143.128906 83.960938 140.582031 74.390625 Z M 103.84375 184.023438 C 141.921875 246.308594 249.726562 238.835938 277.769531 166.582031 C 277.769531 166.582031 245.054688 214.542969 188.347656 209.871094 C 131.636719 205.199219 119.484375 156.613281 126.652344 131.386719 C 126.652344 131.386719 153.605469 142.289062 163.730469 168.136719 C 163.730469 168.136719 162.640625 144.933594 153.449219 138.394531 C 153.449219 138.394531 221.476562 155.160156 218.570312 198.761719 C 218.570312 198.761719 239.964844 168.65625 203.824219 135.230469 C 167.679688 101.796875 173.703125 95.777344 173.703125 95.777344 C 173.703125 95.777344 179.828125 92.5625 183.257812 87.160156 L 184.605469 90.792969 C 184.605469 90.792969 186.683594 82.28125 186.164062 78.441406 C 186.164062 78.441406 188.65625 82.90625 189.695312 84.464844 C 189.695312 84.464844 188.035156 73.144531 188.035156 70.445312 C 188.035156 67.746094 194.992188 59.753906 203.511719 60.792969 C 212.027344 61.828125 218.570312 56.433594 218.570312 56.433594 L 217.324219 61.414062 C 217.324219 61.414062 222.414062 56.328125 226.046875 56.015625 C 229.683594 55.703125 236.640625 57.675781 234.25 59.441406 C 231.863281 61.207031 234.773438 64.941406 234.773438 64.941406 C 234.773438 64.941406 233.058594 61.777344 236.589844 59.859375 C 240.121094 57.933594 244.742188 56.84375 242.714844 52.511719 C 242.714844 52.511719 241.394531 48.464844 237.421875 46.203125 C 237.421875 46.203125 238.667969 48.539062 236.875 48.539062 C 235.082031 48.539062 230.566406 41.921875 225.582031 40.832031 L 226.203125 42.777344 C 226.203125 42.777344 224.644531 40.988281 208.988281 35.304688 C 193.332031 29.621094 192.628906 25.804688 192.628906 25.804688 C 192.628906 25.804688 192.394531 32.734375 207.277344 39.976562 C 207.277344 39.976562 196.214844 36.859375 189.746094 30.945312 C 189.746094 30.945312 193.175781 36.316406 200.65625 40.367188 L 189.746094 39.507812 L 196.757812 42.46875 C 196.757812 42.46875 184.761719 43.011719 173.078125 39.160156 C 173.078125 39.160156 176.503906 41.375 178.84375 42.621094 C 178.84375 42.621094 163.417969 43.714844 157.5 42.46875 C 157.5 42.46875 169.652344 45.738281 173.234375 46.203125 C 173.234375 46.203125 159.523438 47.140625 151.890625 51.34375 C 151.890625 51.34375 153.605469 65.828125 162.640625 81.867188 C 162.640625 81.867188 144.414062 60.894531 150.230469 29.960938 C 150.230469 29.960938 128.625 26.21875 115.539062 51.96875 C 102.453125 77.714844 101.414062 109.273438 123.535156 125.46875 C 123.535156 125.46875 112.527344 119.167969 106.972656 104.722656 C 92.757812 160.179688 119.148438 188.03125 128.867188 196.097656 C 85.320312 162.300781 100.957031 109.261719 104.953125 97.9375 C 103.34375 90.453125 103.277344 81.308594 106.203125 70.34375 C 106.203125 70.34375 65.769531 121.730469 103.84375 184.023438 " fill-opacity="1" fill-rule="nonzero"/></g><g fill="#100f0d" fill-opacity="1"><g transform="translate(64.646183, 306.613391)"><g><path d="M 8.453125 -8.453125 C 8.453125 -6.835938 8.535156 -5.332031 8.703125 -3.9375 C 8.867188 -2.539062 9.164062 -1.226562 9.59375 0 L 0 0 C 0.46875 -1.226562 0.773438 -2.539062 0.921875 -3.9375 C 1.066406 -5.332031 1.140625 -6.835938 1.140625 -8.453125 C 1.140625 -9.503906 1.140625 -11.054688 1.140625 -13.109375 C 1.140625 -15.171875 1.140625 -17.472656 1.140625 -20.015625 C 1.140625 -22.554688 1.140625 -25.097656 1.140625 -27.640625 C 1.140625 -30.179688 1.140625 -32.476562 1.140625 -34.53125 C 1.140625 -36.582031 1.140625 -38.140625 1.140625 -39.203125 C 1.140625 -40.804688 1.066406 -42.316406 0.921875 -43.734375 C 0.773438 -45.160156 0.46875 -46.460938 0 -47.640625 L 31.25 -47.640625 L 31.703125 -40.40625 L 31.1875 -40.40625 C 31.019531 -40.875 30.640625 -41.476562 30.046875 -42.21875 C 29.453125 -42.957031 28.570312 -43.632812 27.40625 -44.25 C 26.25 -44.863281 24.71875 -45.171875 22.8125 -45.171875 L 8.453125 -45.171875 L 8.453125 -23.0625 L 15.4375 -23.0625 C 17.34375 -23.0625 18.878906 -23.367188 20.046875 -23.984375 C 21.210938 -24.597656 22.085938 -25.285156 22.671875 -26.046875 C 23.265625 -26.804688 23.648438 -27.398438 23.828125 -27.828125 L 24.390625 -27.828125 C 24.390625 -25.835938 24.390625 -23.835938 24.390625 -21.828125 C 24.390625 -19.816406 24.390625 -17.8125 24.390625 -15.8125 L 23.828125 -15.8125 C 23.648438 -16.28125 23.265625 -16.882812 22.671875 -17.625 C 22.085938 -18.363281 21.210938 -19.039062 20.046875 -19.65625 C 18.878906 -20.269531 17.34375 -20.578125 15.4375 -20.578125 L 8.453125 -20.578125 Z M 8.453125 -8.453125 "/></g></g></g><g fill="#100f0d" fill-opacity="1"><g transform="translate(101.749414, 306.613391)"><g><path d="M 25.984375 -47.640625 L 40.15625 -8.390625 C 40.664062 -6.992188 41.289062 -5.539062 42.03125 -4.03125 C 42.769531 -2.53125 43.476562 -1.1875 44.15625 0 L 34.5 0 C 34.5 -1.101562 34.273438 -2.414062 33.828125 -3.9375 C 33.378906 -5.457031 32.90625 -6.898438 32.40625 -8.265625 C 31.851562 -9.867188 31.21875 -11.285156 30.5 -12.515625 C 29.78125 -13.742188 28.765625 -14.757812 27.453125 -15.5625 C 25.960938 -16.5 24.285156 -17.125 22.421875 -17.4375 C 20.554688 -17.757812 18.691406 -17.78125 16.828125 -17.5 C 14.972656 -17.226562 13.300781 -16.644531 11.8125 -15.75 C 10.332031 -14.90625 9.234375 -13.859375 8.515625 -12.609375 C 7.796875 -11.359375 7.140625 -9.953125 6.546875 -8.390625 C 5.742188 -6.140625 6.335938 -3.34375 8.328125 0 L 0 0 C 0.71875 -1.1875 1.425781 -2.53125 2.125 -4.03125 C 2.820312 -5.539062 3.425781 -6.992188 3.9375 -8.390625 L 18.109375 -47.640625 Z M 29.09375 -17.46875 L 19.4375 -43.96875 L 9.84375 -17.46875 C 11.707031 -18.65625 13.769531 -19.445312 16.03125 -19.84375 C 18.300781 -20.25 20.578125 -20.25 22.859375 -19.84375 C 25.148438 -19.445312 27.226562 -18.65625 29.09375 -17.46875 Z M 29.09375 -17.46875 "/></g></g></g><g fill="#100f0d" fill-opacity="1"><g transform="translate(151.178035, 306.613391)"><g><path d="M 25.796875 -26.359375 L 25.796875 -8.453125 C 25.796875 -6.835938 25.878906 -5.332031 26.046875 -3.9375 C 26.210938 -2.539062 26.507812 -1.226562 26.9375 0 L 17.34375 0 C 17.8125 -1.226562 18.109375 -2.539062 18.234375 -3.9375 C 18.359375 -5.332031 18.421875 -6.835938 18.421875 -8.453125 L 18.421875 -22.6875 L 5.90625 -40.65625 C 5.1875 -41.71875 4.253906 -42.9375 3.109375 -44.3125 C 1.960938 -45.6875 0.925781 -46.796875 0 -47.640625 L 10.671875 -47.640625 C 11.179688 -46.503906 11.703125 -45.5 12.234375 -44.625 C 12.765625 -43.757812 13.367188 -42.835938 14.046875 -41.859375 L 23.828125 -27.828125 L 34.8125 -41.296875 C 35.488281 -42.265625 36.164062 -43.28125 36.84375 -44.34375 C 37.519531 -45.40625 38.132812 -46.503906 38.6875 -47.640625 L 44.28125 -47.640625 C 42.539062 -46.078125 41.085938 -44.660156 39.921875 -43.390625 C 38.765625 -42.117188 37.460938 -40.613281 36.015625 -38.875 Z M 25.796875 -26.359375 "/></g></g></g><g fill="#100f0d" fill-opacity="1"><g transform="translate(200.860785, 306.613391)"><g><path d="M 0 0 C 0.46875 -1.226562 0.773438 -2.539062 0.921875 -3.9375 C 1.066406 -5.332031 1.140625 -6.835938 1.140625 -8.453125 C 1.140625 -9.503906 1.140625 -11.054688 1.140625 -13.109375 C 1.140625 -15.171875 1.140625 -17.472656 1.140625 -20.015625 C 1.140625 -22.554688 1.140625 -25.097656 1.140625 -27.640625 C 1.140625 -30.179688 1.140625 -32.476562 1.140625 -34.53125 C 1.140625 -36.582031 1.140625 -38.140625 1.140625 -39.203125 C 1.140625 -40.804688 1.066406 -42.316406 0.921875 -43.734375 C 0.773438 -45.160156 0.46875 -46.460938 0 -47.640625 C 3.132812 -47.640625 6.28125 -47.640625 9.4375 -47.640625 C 12.59375 -47.640625 15.738281 -47.640625 18.875 -47.640625 C 22.175781 -47.640625 25.316406 -47.128906 28.296875 -46.109375 C 31.285156 -45.097656 33.941406 -43.585938 36.265625 -41.578125 C 38.597656 -39.566406 40.441406 -37.078125 41.796875 -34.109375 C 43.160156 -31.148438 43.84375 -27.722656 43.84375 -23.828125 C 43.84375 -19.929688 43.160156 -16.5 41.796875 -13.53125 C 40.441406 -10.5625 38.597656 -8.070312 36.265625 -6.0625 C 33.941406 -4.050781 31.285156 -2.535156 28.296875 -1.515625 C 25.316406 -0.503906 22.175781 0 18.875 0 C 15.738281 0 12.59375 0 9.4375 0 C 6.28125 0 3.132812 0 0 0 Z M 8.453125 -45.171875 L 8.453125 -2.484375 L 18.875 -2.484375 C 21.113281 -2.484375 23.28125 -2.976562 25.375 -3.96875 C 27.476562 -4.96875 29.351562 -6.382812 31 -8.21875 C 32.65625 -10.0625 33.957031 -12.296875 34.90625 -14.921875 C 35.863281 -17.554688 36.34375 -20.523438 36.34375 -23.828125 C 36.34375 -27.128906 35.863281 -30.09375 34.90625 -32.71875 C 33.957031 -35.34375 32.65625 -37.578125 31 -39.421875 C 29.351562 -41.265625 27.476562 -42.679688 25.375 -43.671875 C 23.28125 -44.671875 21.113281 -45.171875 18.875 -45.171875 Z M 8.453125 -45.171875 "/></g></g></g><g fill="#100f0d" fill-opacity="1"><g transform="translate(250.09882, 306.613391)"><g><path d="M 1.140625 -39.203125 C 1.140625 -40.804688 1.066406 -42.316406 0.921875 -43.734375 C 0.773438 -45.160156 0.46875 -46.460938 0 -47.640625 L 9.59375 -47.640625 C 9.164062 -46.460938 8.867188 -45.160156 8.703125 -43.734375 C 8.535156 -42.316406 8.453125 -40.804688 8.453125 -39.203125 C 8.453125 -38.140625 8.453125 -36.582031 8.453125 -34.53125 C 8.453125 -32.476562 8.453125 -30.179688 8.453125 -27.640625 C 8.453125 -25.097656 8.453125 -22.554688 8.453125 -20.015625 C 8.453125 -17.472656 8.453125 -15.171875 8.453125 -13.109375 C 8.453125 -11.054688 8.453125 -9.503906 8.453125 -8.453125 C 8.453125 -6.835938 8.535156 -5.332031 8.703125 -3.9375 C 8.867188 -2.539062 9.164062 -1.226562 9.59375 0 L 0 0 C 0.46875 -1.226562 0.773438 -2.539062 0.921875 -3.9375 C 1.066406 -5.332031 1.140625 -6.835938 1.140625 -8.453125 Z M 1.140625 -39.203125 "/></g></g></g><g fill="#100f0d" fill-opacity="1"><g transform="translate(265.156121, 306.613391)"><g><path d="M 31.453125 -47.640625 L 39.828125 -47.640625 C 39.410156 -46.460938 39.113281 -45.160156 38.9375 -43.734375 C 38.769531 -42.316406 38.6875 -40.804688 38.6875 -39.203125 L 38.6875 0 L 35.390625 0 L 3.625 -42.75 L 3.625 -11.375 C 3.625 -10.019531 3.75 -8.597656 4 -7.109375 C 4.257812 -5.628906 4.738281 -4.265625 5.4375 -3.015625 C 6.132812 -1.765625 7.117188 -0.757812 8.390625 0 L 0 0 C 0.46875 -1.226562 0.773438 -2.539062 0.921875 -3.9375 C 1.066406 -5.332031 1.140625 -6.835938 1.140625 -8.453125 L 1.140625 -46.125 L 0 -47.640625 C 1.519531 -47.640625 3.039062 -47.640625 4.5625 -47.640625 C 6.09375 -47.640625 7.625 -47.640625 9.15625 -47.640625 L 36.21875 -11.1875 L 36.21875 -36.28125 C 36.21875 -37.632812 36.085938 -39.050781 35.828125 -40.53125 C 35.578125 -42.007812 35.113281 -43.382812 34.4375 -44.65625 C 33.757812 -45.925781 32.765625 -46.921875 31.453125 -47.640625 Z M 31.453125 -47.640625 "/></g></g></g><g fill="#100f0d" fill-opacity="1"><g transform="translate(147.368157, 345.277021)"><g><path d="M 1.40625 0.078125 C 1.226562 0.078125 1.0625 0.015625 0.90625 -0.109375 C 0.75 -0.234375 0.671875 -0.414062 0.671875 -0.65625 C 0.671875 -0.875 0.75 -1.046875 0.90625 -1.171875 C 1.0625 -1.304688 1.226562 -1.375 1.40625 -1.375 C 1.59375 -1.375 1.757812 -1.304688 1.90625 -1.171875 C 2.0625 -1.046875 2.140625 -0.875 2.140625 -0.65625 C 2.140625 -0.414062 2.0625 -0.234375 1.90625 -0.109375 C 1.757812 0.015625 1.59375 0.078125 1.40625 0.078125 Z M 1.40625 0.078125 "/></g></g></g><g fill="#100f0d" fill-opacity="1"><g transform="translate(163.591689, 345.277021)"><g><path d="M 6.078125 0.203125 C 4.941406 0.203125 3.957031 -0.0546875 3.125 -0.578125 C 2.300781 -1.097656 1.664062 -1.820312 1.21875 -2.75 C 0.769531 -3.6875 0.546875 -4.765625 0.546875 -5.984375 C 0.546875 -7.191406 0.769531 -8.257812 1.21875 -9.1875 C 1.664062 -10.125 2.304688 -10.859375 3.140625 -11.390625 C 3.972656 -11.921875 4.96875 -12.1875 6.125 -12.1875 C 7 -12.1875 7.765625 -12.015625 8.421875 -11.671875 C 9.085938 -11.335938 9.625 -10.875 10.03125 -10.28125 C 10.445312 -9.6875 10.710938 -9 10.828125 -8.21875 L 9.671875 -8.21875 C 9.585938 -8.78125 9.382812 -9.289062 9.0625 -9.75 C 8.75 -10.207031 8.34375 -10.566406 7.84375 -10.828125 C 7.34375 -11.097656 6.753906 -11.234375 6.078125 -11.234375 C 5.128906 -11.234375 4.328125 -11.003906 3.671875 -10.546875 C 3.023438 -10.085938 2.535156 -9.460938 2.203125 -8.671875 C 1.867188 -7.890625 1.703125 -6.992188 1.703125 -5.984375 C 1.703125 -4.960938 1.867188 -4.0625 2.203125 -3.28125 C 2.546875 -2.5 3.039062 -1.882812 3.6875 -1.4375 C 4.332031 -0.988281 5.117188 -0.765625 6.046875 -0.765625 C 6.785156 -0.765625 7.421875 -0.925781 7.953125 -1.25 C 8.484375 -1.570312 8.90625 -1.992188 9.21875 -2.515625 C 9.53125 -3.035156 9.726562 -3.601562 9.8125 -4.21875 L 10.96875 -4.21875 C 10.863281 -3.351562 10.597656 -2.585938 10.171875 -1.921875 C 9.753906 -1.253906 9.191406 -0.734375 8.484375 -0.359375 C 7.785156 0.015625 6.984375 0.203125 6.078125 0.203125 Z M 6.078125 0.203125 "/></g></g></g><g fill="#100f0d" fill-opacity="1"><g transform="translate(188.413057, 345.277021)"><g><path d="M 6.171875 0.203125 C 5.023438 0.203125 4.03125 -0.0625 3.1875 -0.59375 C 2.351562 -1.125 1.703125 -1.851562 1.234375 -2.78125 C 0.773438 -3.71875 0.546875 -4.789062 0.546875 -6 C 0.546875 -7.207031 0.773438 -8.273438 1.234375 -9.203125 C 1.703125 -10.128906 2.351562 -10.859375 3.1875 -11.390625 C 4.03125 -11.921875 5.023438 -12.1875 6.171875 -12.1875 C 7.304688 -12.1875 8.296875 -11.921875 9.140625 -11.390625 C 9.984375 -10.859375 10.632812 -10.128906 11.09375 -9.203125 C 11.550781 -8.273438 11.78125 -7.207031 11.78125 -6 C 11.78125 -4.789062 11.550781 -3.71875 11.09375 -2.78125 C 10.632812 -1.851562 9.984375 -1.125 9.140625 -0.59375 C 8.296875 -0.0625 7.304688 0.203125 6.171875 0.203125 Z M 6.171875 -0.765625 C 7.066406 -0.765625 7.84375 -0.984375 8.5 -1.421875 C 9.164062 -1.867188 9.6875 -2.484375 10.0625 -3.265625 C 10.4375 -4.054688 10.625 -4.96875 10.625 -6 C 10.625 -7.03125 10.4375 -7.9375 10.0625 -8.71875 C 9.6875 -9.507812 9.164062 -10.125 8.5 -10.5625 C 7.84375 -11.007812 7.066406 -11.234375 6.171875 -11.234375 C 5.285156 -11.234375 4.503906 -11.007812 3.828125 -10.5625 C 3.160156 -10.125 2.640625 -9.507812 2.265625 -8.71875 C 1.890625 -7.9375 1.703125 -7.03125 1.703125 -6 C 1.703125 -4.96875 1.890625 -4.054688 2.265625 -3.265625 C 2.640625 -2.484375 3.160156 -1.867188 3.828125 -1.421875 C 4.503906 -0.984375 5.285156 -0.765625 6.171875 -0.765625 Z M 6.171875 -0.765625 "/></g></g></g><g fill="#100f0d" fill-opacity="1"><g transform="translate(214.156223, 345.277021)"><g><path d="M 1.015625 0 L 1.015625 -11.984375 L 2.53125 -11.984375 L 6.703125 -1.625 L 6.734375 -1.625 L 10.9375 -11.984375 L 12.4375 -11.984375 L 12.4375 0 L 11.328125 0 L 11.328125 -10.265625 L 11.296875 -10.265625 L 7.203125 0 L 6.25 0 L 2.171875 -10.265625 L 2.140625 -10.265625 L 2.140625 0 Z M 1.015625 0 "/></g></g></g></svg>